<svg xmlns="http://www.w3.org/2000/svg" xmlns:xlink="http://www.w3.org/1999/xlink" width="40" zoomAndPan="magnify" viewBox="0 0 30 30.000001" height="40" preserveAspectRatio="xMidYMid meet" version="1.0"><defs><clipPath id="2039b2a560"><path d="M 5 5.300781 L 29 5.300781 L 29 23.445312 L 5 23.445312 Z M 5 5.300781 " clip-rule="nonzero"/></clipPath><clipPath id="51176f2cd7"><path d="M 5 5.300781 L 29 5.300781 L 29 23.445312 L 5 23.445312 Z M 5 5.300781 " clip-rule="nonzero"/></clipPath><clipPath id="c685f6a4ad"><path d="M 0.484375 15 L 12 15 L 12 23 L 0.484375 23 Z M 0.484375 15 " clip-rule="nonzero"/></clipPath><clipPath id="4dc6c9ccc5"><path d="M 0.484375 22 L 12 22 L 12 23.445312 L 0.484375 23.445312 Z M 0.484375 22 " clip-rule="nonzero"/></clipPath><clipPath id="f6c02ffab8"><path d="M 0.707031 22.28125 L 11.765625 22.28125 L 11.765625 23.445312 L 0.707031 23.445312 Z M 0.707031 22.28125 " clip-rule="nonzero"/></clipPath><clipPath id="26ca651e7a"><path d="M 0.484375 11 L 13 11 L 13 23 L 0.484375 23 Z M 0.484375 11 " clip-rule="nonzero"/></clipPath><clipPath id="facd898fff"><path d="M 24 10 L 29.515625 10 L 29.515625 23 L 24 23 Z M 24 10 " clip-rule="nonzero"/></clipPath><clipPath id="993b493208"><path d="M 24.332031 10.152344 L 29.515625 10.152344 L 29.515625 23.324219 L 24.332031 23.324219 Z M 24.332031 10.152344 " clip-rule="nonzero"/></clipPath><clipPath id="c537f4b2de"><path d="M 19 14 L 25 14 L 25 23.445312 L 19 23.445312 Z M 19 14 " clip-rule="nonzero"/></clipPath></defs><path fill="#a6a6a6" d="M 17.214844 21.820312 L 16.527344 21.820312 C 16.332031 21.820312 16.171875 21.664062 16.171875 21.472656 L 16.171875 18.078125 C 16.171875 17.886719 16.332031 17.734375 16.527344 17.734375 L 17.214844 17.734375 C 17.40625 17.734375 17.566406 17.886719 17.566406 18.078125 L 17.566406 21.472656 C 17.566406 21.664062 17.40625 21.820312 17.214844 21.820312 " fill-opacity="1" fill-rule="nonzero"/><path fill="#ffffff" d="M 17.214844 22.003906 C 16.800781 22.003906 16.132812 22.125 16 21.601562 C 15.925781 21.324219 15.984375 20.980469 15.984375 20.699219 C 15.984375 19.863281 15.96875 19.023438 15.984375 18.1875 C 15.988281 17.816406 16.179688 17.5625 16.582031 17.550781 C 16.980469 17.535156 17.613281 17.453125 17.738281 17.949219 C 17.796875 18.167969 17.757812 18.433594 17.757812 18.65625 C 17.757812 19.128906 17.757812 19.605469 17.757812 20.078125 C 17.757812 20.480469 17.757812 20.882812 17.757812 21.285156 C 17.757812 21.652344 17.640625 21.957031 17.214844 22.003906 C 16.972656 22.03125 16.976562 21.664062 17.214844 21.636719 C 17.476562 21.605469 17.378906 21.039062 17.378906 20.898438 C 17.378906 20.484375 17.378906 20.070312 17.378906 19.65625 C 17.378906 19.285156 17.378906 18.914062 17.378906 18.542969 C 17.378906 18.359375 17.4375 18.132812 17.296875 17.996094 C 17.160156 17.867188 16.96875 17.917969 16.777344 17.917969 C 16.621094 17.917969 16.421875 17.867188 16.359375 18.082031 C 16.3125 18.238281 16.359375 18.472656 16.359375 18.632812 C 16.359375 19.386719 16.359375 20.144531 16.359375 20.898438 C 16.359375 21.0625 16.3125 21.308594 16.359375 21.46875 C 16.441406 21.75 17 21.636719 17.214844 21.636719 C 17.457031 21.636719 17.457031 22.003906 17.214844 22.003906 " fill-opacity="1" fill-rule="nonzero"/><g clip-path="url(#2039b2a560)"><path fill="#a6a6a6" d="M 16.871094 20.09375 L 16.8125 20.09375 C 15.039062 20.09375 13.558594 21.410156 13.359375 23.09375 L 20.324219 23.09375 C 20.125 21.410156 18.648438 20.09375 16.871094 20.09375 Z M 27.25 19.234375 L 6.574219 19.234375 C 6.160156 19.234375 5.820312 18.902344 5.820312 18.5 L 5.820312 6.371094 C 5.820312 5.96875 6.160156 5.636719 6.574219 5.636719 L 27.25 5.636719 C 27.664062 5.636719 28.003906 5.96875 28.003906 6.371094 L 28.003906 18.5 C 28.003906 18.902344 27.664062 19.234375 27.25 19.234375 " fill-opacity="1" fill-rule="nonzero"/></g><path fill="#f63e7b" d="M 25.890625 17.921875 L 7.933594 17.921875 C 7.515625 17.921875 7.179688 17.589844 7.179688 17.183594 L 7.179688 7.601562 C 7.179688 7.199219 7.515625 6.867188 7.933594 6.867188 L 25.890625 6.867188 C 26.304688 6.867188 26.644531 7.199219 26.644531 7.601562 L 26.644531 17.183594 C 26.644531 17.589844 26.304688 17.921875 25.890625 17.921875 " fill-opacity="1" fill-rule="nonzero"/><path fill="#ffffff" d="M 15.121094 12.464844 C 15.242188 11.46875 16.023438 10.632812 17.058594 10.582031 C 16.957031 10.488281 16.855469 10.390625 16.753906 10.292969 C 16.578125 10.128906 16.847656 9.867188 17.019531 10.035156 C 17.234375 10.238281 17.449219 10.441406 17.660156 10.644531 C 17.726562 10.707031 17.730469 10.785156 17.695312 10.847656 C 17.6875 10.867188 17.675781 10.886719 17.660156 10.902344 C 17.460938 11.125 17.261719 11.351562 17.0625 11.574219 C 16.902344 11.75 16.636719 11.492188 16.792969 11.3125 C 16.902344 11.191406 17.011719 11.070312 17.121094 10.949219 C 16.273438 10.980469 15.597656 11.636719 15.5 12.464844 C 15.472656 12.695312 15.09375 12.699219 15.121094 12.464844 Z M 17.9375 14.421875 C 16.996094 14.773438 15.921875 14.402344 15.371094 13.597656 C 15.332031 13.734375 15.289062 13.867188 15.246094 14.003906 C 15.179688 14.230469 14.816406 14.132812 14.882812 13.90625 C 14.96875 13.628906 15.054688 13.347656 15.140625 13.070312 C 15.160156 13.007812 15.199219 12.972656 15.246094 12.953125 C 15.28125 12.9375 15.324219 12.929688 15.371094 12.941406 C 15.667969 13.011719 15.964844 13.078125 16.257812 13.148438 C 16.496094 13.203125 16.394531 13.558594 16.160156 13.503906 C 16 13.464844 15.84375 13.429688 15.6875 13.390625 C 16.15625 14.074219 17.039062 14.363281 17.839844 14.066406 C 18.066406 13.984375 18.164062 14.339844 17.9375 14.421875 Z M 19.433594 13.792969 C 19.144531 13.867188 18.855469 13.9375 18.566406 14.007812 C 18.460938 14.035156 18.363281 13.976562 18.332031 13.882812 C 18.242188 13.597656 18.152344 13.316406 18.058594 13.03125 C 17.988281 12.804688 18.351562 12.710938 18.421875 12.933594 C 18.472656 13.089844 18.523438 13.242188 18.574219 13.398438 C 19 12.671875 18.855469 11.730469 18.105469 11.25 C 17.902344 11.121094 18.089844 10.800781 18.292969 10.933594 C 19.195312 11.507812 19.433594 12.648438 18.925781 13.542969 C 19.058594 13.507812 19.195312 13.472656 19.332031 13.441406 C 19.566406 13.382812 19.667969 13.738281 19.433594 13.792969 Z M 26.457031 10.097656 C 26.457031 12.371094 26.457031 14.644531 26.457031 16.917969 C 26.457031 17.296875 26.402344 17.710938 25.890625 17.738281 C 24.523438 17.738281 23.152344 17.738281 21.78125 17.738281 C 19.09375 17.738281 16.402344 17.738281 13.710938 17.738281 C 11.867188 17.738281 10.019531 17.738281 8.175781 17.738281 C 7.957031 17.738281 7.746094 17.753906 7.5625 17.601562 C 7.320312 17.398438 7.367188 17.082031 7.367188 16.808594 C 7.367188 15.792969 7.367188 14.773438 7.367188 13.753906 C 7.367188 12.847656 7.367188 11.941406 7.367188 11.035156 C 7.980469 10.992188 8.59375 10.949219 9.207031 10.902344 C 9.085938 11.273438 8.960938 11.648438 8.835938 12.019531 C 8.796875 12.132812 8.980469 12.179688 9.019531 12.066406 C 9.15625 11.652344 9.292969 11.238281 9.433594 10.828125 C 9.449219 10.773438 9.402344 10.707031 9.339844 10.710938 C 8.785156 10.75 8.230469 10.789062 7.675781 10.828125 C 7.96875 10.640625 8.265625 10.453125 8.5625 10.265625 C 8.683594 10.1875 8.722656 10.167969 8.753906 10.03125 C 8.796875 9.8125 8.808594 9.578125 8.839844 9.355469 C 8.84375 9.316406 8.804688 9.277344 8.769531 9.269531 C 8.644531 9.230469 8.523438 9.191406 8.402344 9.152344 C 8.53125 8.835938 8.65625 8.523438 8.785156 8.207031 C 9.292969 8.558594 9.796875 8.910156 10.300781 9.257812 C 10.34375 9.703125 10.390625 10.152344 10.433594 10.597656 C 10.4375 10.660156 10.511719 10.722656 10.574219 10.679688 C 10.824219 10.503906 11.074219 10.332031 11.320312 10.15625 C 11.289062 10.410156 11.238281 10.71875 11.378906 10.890625 C 11.628906 11.203125 11.941406 11.484375 12.21875 11.777344 C 12.300781 11.863281 12.433594 11.734375 12.351562 11.644531 C 12.085938 11.367188 11.824219 11.089844 11.558594 10.808594 C 11.523438 10.769531 11.496094 10.71875 11.488281 10.722656 C 11.488281 10.664062 11.5 10.597656 11.5 10.546875 C 11.511719 10.351562 11.519531 10.160156 11.53125 9.964844 C 11.53125 9.898438 11.445312 9.84375 11.386719 9.886719 C 11.125 10.066406 10.867188 10.25 10.605469 10.433594 C 10.566406 10.050781 10.53125 9.667969 10.492188 9.285156 C 10.996094 9.199219 11.511719 9.140625 12.007812 9.023438 C 12.175781 8.988281 12.183594 8.882812 12.246094 8.730469 C 12.320312 8.550781 12.394531 8.375 12.46875 8.199219 C 12.578125 8.449219 12.6875 8.699219 12.796875 8.949219 C 12.816406 8.996094 12.886719 9.003906 12.925781 8.984375 C 13.199219 8.839844 13.476562 8.699219 13.75 8.554688 C 13.855469 8.5 13.761719 8.339844 13.65625 8.398438 C 13.410156 8.523438 13.167969 8.652344 12.921875 8.777344 C 12.796875 8.488281 12.671875 8.199219 12.546875 7.914062 C 12.511719 7.832031 12.402344 7.871094 12.375 7.933594 C 12.28125 8.160156 12.1875 8.382812 12.097656 8.605469 C 12.0625 8.683594 12.027344 8.761719 11.996094 8.839844 C 11.964844 8.835938 11.898438 8.859375 11.875 8.863281 C 11.472656 8.929688 11.070312 9 10.667969 9.066406 C 10.757812 8.980469 10.847656 8.890625 10.9375 8.804688 C 11.085938 8.65625 11.359375 8.476562 11.460938 8.292969 C 11.539062 8.152344 11.464844 7.898438 11.453125 7.742188 C 11.4375 7.511719 11.417969 7.28125 11.402344 7.050781 C 13.972656 7.050781 16.546875 7.050781 19.121094 7.050781 C 21.1875 7.050781 23.25 7.050781 25.316406 7.050781 C 25.816406 7.050781 26.441406 6.980469 26.457031 7.675781 C 26.472656 8.480469 26.457031 9.289062 26.457031 10.097656 Z M 7.367188 7.628906 C 7.394531 6.9375 8.132812 7.050781 8.621094 7.050781 C 9.484375 7.050781 10.347656 7.050781 11.210938 7.050781 C 11.230469 7.261719 11.246094 7.472656 11.261719 7.683594 C 11.269531 7.820312 11.273438 7.964844 11.292969 8.101562 C 11.296875 8.128906 11.300781 8.164062 11.300781 8.195312 C 11.035156 8.515625 10.6875 8.796875 10.378906 9.089844 C 9.851562 8.722656 9.320312 8.355469 8.792969 7.988281 C 8.738281 7.949219 8.671875 7.992188 8.652344 8.042969 C 8.496094 8.421875 8.339844 8.804688 8.183594 9.183594 C 8.164062 9.230469 8.207031 9.28125 8.25 9.296875 C 8.382812 9.335938 8.511719 9.378906 8.640625 9.421875 C 8.617188 9.601562 8.585938 9.789062 8.570312 9.972656 C 8.570312 9.992188 8.566406 10.015625 8.566406 10.039062 C 8.503906 10.0625 8.425781 10.132812 8.375 10.164062 C 8.039062 10.378906 7.703125 10.59375 7.367188 10.804688 C 7.367188 10.488281 7.367188 10.171875 7.367188 9.855469 C 7.367188 9.113281 7.335938 8.367188 7.367188 7.628906 Z M 26.832031 12.425781 C 26.832031 11.175781 26.832031 9.925781 26.832031 8.679688 C 26.832031 7.964844 27.019531 6.78125 25.972656 6.6875 C 25.546875 6.648438 25.105469 6.683594 24.679688 6.683594 C 23.640625 6.683594 22.605469 6.683594 21.566406 6.683594 C 18.792969 6.683594 16.015625 6.683594 13.242188 6.683594 C 11.5 6.683594 9.757812 6.664062 8.015625 6.683594 C 7.550781 6.6875 7.125 6.929688 7.015625 7.398438 C 6.964844 7.605469 6.988281 7.847656 6.988281 8.058594 C 6.988281 9.148438 6.988281 10.242188 6.988281 11.332031 C 6.988281 12.667969 6.988281 14.003906 6.988281 15.34375 C 6.988281 15.800781 6.988281 16.257812 6.988281 16.714844 C 6.988281 16.933594 6.960938 17.179688 7.015625 17.390625 C 7.203125 18.179688 8.003906 18.105469 8.632812 18.105469 C 9.542969 18.105469 10.453125 18.105469 11.363281 18.105469 C 14.101562 18.105469 16.835938 18.105469 19.574219 18.105469 C 21.578125 18.105469 23.578125 18.105469 25.578125 18.105469 C 25.683594 18.105469 25.789062 18.105469 25.890625 18.105469 C 25.90625 18.105469 25.921875 18.101562 25.933594 18.101562 C 26.492188 18.050781 26.828125 17.628906 26.832031 17.09375 C 26.835938 16.777344 26.832031 16.464844 26.832031 16.148438 C 26.832031 14.90625 26.832031 13.667969 26.832031 12.425781 " fill-opacity="1" fill-rule="nonzero"/><g clip-path="url(#51176f2cd7)"><path fill="#ffffff" d="M 14.234375 22.910156 C 14.015625 22.910156 13.796875 22.910156 13.578125 22.910156 C 13.871094 21.398438 15.253906 20.277344 16.84375 20.277344 C 18.433594 20.277344 19.8125 21.398438 20.105469 22.910156 C 18.148438 22.910156 16.191406 22.910156 14.234375 22.910156 Z M 18.023438 20.089844 C 16.675781 19.648438 15.132812 20.019531 14.15625 21.027344 C 13.601562 21.601562 13.273438 22.316406 13.171875 23.09375 C 13.160156 23.191406 13.269531 23.277344 13.359375 23.277344 C 15.390625 23.277344 17.421875 23.277344 19.449219 23.277344 C 19.742188 23.277344 20.035156 23.277344 20.324219 23.277344 C 20.355469 23.277344 20.382812 23.269531 20.410156 23.257812 C 20.476562 23.238281 20.527344 23.183594 20.511719 23.09375 C 20.332031 21.714844 19.386719 20.539062 18.023438 20.089844 Z M 27.816406 10.128906 C 27.816406 12.808594 27.816406 15.484375 27.816406 18.164062 C 27.816406 18.5625 27.804688 19.019531 27.25 19.050781 C 25.585938 19.050781 23.921875 19.050781 22.257812 19.050781 C 19.070312 19.050781 15.878906 19.050781 12.691406 19.050781 C 10.6875 19.050781 8.679688 19.082031 6.671875 19.050781 C 6.300781 19.042969 6.019531 18.847656 6.007812 18.453125 C 6 18.164062 6.007812 17.875 6.007812 17.582031 C 6.007812 16.265625 6.007812 14.945312 6.007812 13.625 C 6.007812 12.078125 6.007812 10.53125 6.007812 8.988281 C 6.007812 8.128906 5.980469 7.269531 6.007812 6.414062 C 6.03125 5.671875 6.894531 5.820312 7.414062 5.820312 C 8.464844 5.820312 9.515625 5.820312 10.5625 5.820312 C 13.710938 5.820312 16.859375 5.820312 20.007812 5.820312 C 22.300781 5.820312 24.589844 5.820312 26.882812 5.820312 C 27.003906 5.820312 27.128906 5.8125 27.25 5.820312 C 27.820312 5.859375 27.816406 6.332031 27.816406 6.742188 C 27.816406 7.871094 27.816406 9 27.816406 10.128906 Z M 28.042969 5.878906 C 27.667969 5.304688 26.78125 5.453125 26.183594 5.453125 C 25.035156 5.453125 23.886719 5.453125 22.742188 5.453125 C 19.46875 5.453125 16.195312 5.453125 12.925781 5.453125 C 10.839844 5.453125 8.757812 5.433594 6.671875 5.453125 C 6.113281 5.457031 5.65625 5.796875 5.632812 6.371094 C 5.621094 6.582031 5.632812 6.792969 5.632812 7.003906 C 5.632812 8.277344 5.632812 9.554688 5.632812 10.828125 C 5.632812 13.367188 5.589844 15.90625 5.632812 18.441406 C 5.640625 18.984375 6.019531 19.398438 6.585938 19.417969 C 6.765625 19.425781 6.945312 19.417969 7.121094 19.417969 C 8.101562 19.417969 9.085938 19.417969 10.066406 19.417969 C 13.28125 19.417969 16.492188 19.417969 19.707031 19.417969 C 22.09375 19.417969 24.484375 19.417969 26.875 19.417969 C 27 19.417969 27.125 19.417969 27.25 19.417969 C 27.265625 19.417969 27.277344 19.417969 27.292969 19.414062 C 27.894531 19.359375 28.191406 18.894531 28.191406 18.339844 C 28.191406 17.953125 28.191406 17.5625 28.191406 17.175781 C 28.191406 15.726562 28.191406 14.28125 28.191406 12.832031 C 28.191406 11.308594 28.191406 9.78125 28.191406 8.253906 C 28.191406 7.765625 28.191406 7.277344 28.191406 6.789062 C 28.191406 6.476562 28.222656 6.15625 28.042969 5.878906 " fill-opacity="1" fill-rule="nonzero"/></g><g clip-path="url(#c685f6a4ad)"><path fill="#f63e7b" d="M 11.226562 22.402344 L 1.289062 22.402344 C 0.875 22.402344 0.535156 22.074219 0.535156 21.667969 L 0.535156 16.527344 C 0.535156 16.125 0.875 15.792969 1.289062 15.792969 L 11.226562 15.792969 C 11.640625 15.792969 11.980469 16.125 11.980469 16.527344 L 11.980469 21.667969 C 11.980469 22.074219 11.640625 22.402344 11.226562 22.402344 " fill-opacity="1" fill-rule="nonzero"/></g><g clip-path="url(#4dc6c9ccc5)"><path fill="#f63e7b" d="M 11.539062 22.875 C 11.539062 22.664062 11.359375 22.492188 11.144531 22.492188 L 8.738281 22.492188 C 8.523438 22.492188 8.34375 22.664062 8.34375 22.875 C 8.34375 23.085938 8.523438 23.257812 8.738281 23.257812 L 11.144531 23.257812 C 11.359375 23.257812 11.539062 23.085938 11.539062 22.875 Z M 3.746094 23.257812 L 1.339844 23.257812 C 1.125 23.257812 0.949219 23.085938 0.949219 22.875 C 0.949219 22.664062 1.125 22.492188 1.339844 22.492188 L 3.746094 22.492188 C 3.964844 22.492188 4.140625 22.664062 4.140625 22.875 C 4.140625 23.085938 3.964844 23.257812 3.746094 23.257812 " fill-opacity="1" fill-rule="nonzero"/></g><g clip-path="url(#f6c02ffab8)"><path fill="#ffffff" d="M 11.144531 23.074219 C 10.683594 23.074219 10.21875 23.074219 9.753906 23.074219 C 9.492188 23.074219 9.230469 23.074219 8.964844 23.074219 C 8.898438 23.074219 8.824219 23.085938 8.757812 23.074219 C 8.492188 23.035156 8.453125 22.734375 8.738281 22.675781 C 8.875 22.648438 9.046875 22.675781 9.1875 22.675781 C 9.480469 22.675781 9.773438 22.675781 10.066406 22.675781 C 10.351562 22.675781 10.632812 22.675781 10.917969 22.675781 C 10.984375 22.675781 11.0625 22.667969 11.125 22.675781 C 11.375 22.714844 11.449219 23.046875 11.144531 23.074219 C 10.90625 23.097656 10.902344 23.46875 11.144531 23.441406 C 11.925781 23.367188 11.871094 22.332031 11.09375 22.308594 C 10.511719 22.289062 9.925781 22.308594 9.34375 22.308594 C 8.894531 22.308594 8.15625 22.226562 8.15625 22.875 C 8.15625 23.535156 8.917969 23.441406 9.371094 23.441406 C 9.960938 23.441406 10.554688 23.441406 11.144531 23.441406 C 11.386719 23.441406 11.386719 23.074219 11.144531 23.074219 Z M 3.746094 23.441406 C 3.15625 23.441406 2.566406 23.441406 1.972656 23.441406 C 1.523438 23.441406 0.757812 23.535156 0.757812 22.875 C 0.757812 22.226562 1.5 22.308594 1.945312 22.308594 C 2.527344 22.308594 3.113281 22.289062 3.695312 22.308594 C 4.472656 22.332031 4.527344 23.367188 3.746094 23.441406 C 3.503906 23.46875 3.507812 23.097656 3.746094 23.074219 C 4.050781 23.046875 3.976562 22.714844 3.730469 22.675781 C 3.664062 22.667969 3.585938 22.675781 3.519531 22.675781 C 3.238281 22.675781 2.953125 22.675781 2.667969 22.675781 C 2.375 22.675781 2.082031 22.675781 1.789062 22.675781 C 1.648438 22.675781 1.476562 22.648438 1.339844 22.675781 C 1.054688 22.734375 1.09375 23.035156 1.359375 23.074219 C 1.425781 23.085938 1.5 23.074219 1.566406 23.074219 C 1.832031 23.074219 2.09375 23.074219 2.359375 23.074219 C 2.820312 23.074219 3.285156 23.074219 3.746094 23.074219 C 3.992188 23.074219 3.988281 23.441406 3.746094 23.441406 " fill-opacity="1" fill-rule="nonzero"/></g><path fill="#a6a6a6" d="M 10.472656 17.734375 L 7.5 17.734375 C 7.167969 17.734375 6.898438 17.46875 6.898438 17.148438 C 6.898438 16.828125 7.167969 16.566406 7.5 16.566406 L 10.472656 16.566406 C 10.800781 16.566406 11.070312 16.828125 11.070312 17.148438 C 11.070312 17.46875 10.800781 17.734375 10.472656 17.734375 " fill-opacity="1" fill-rule="nonzero"/><path fill="#f63e7b" d="M 10.421875 18.289062 C 10.015625 18.289062 9.683594 18.609375 9.683594 19.007812 C 9.683594 19.40625 10.015625 19.726562 10.421875 19.726562 C 10.832031 19.726562 11.160156 19.40625 11.160156 19.007812 C 11.160156 18.609375 10.832031 18.289062 10.421875 18.289062 Z M 9.367188 20.007812 C 9.367188 20.507812 8.949219 20.910156 8.4375 20.910156 C 7.925781 20.910156 7.511719 20.507812 7.511719 20.007812 C 7.511719 19.507812 7.925781 19.105469 8.4375 19.105469 C 8.949219 19.105469 9.367188 19.507812 9.367188 20.007812 " fill-opacity="1" fill-rule="nonzero"/><path fill="#ffffff" d="M 11.003906 19.007812 C 11.003906 18.695312 10.742188 18.441406 10.421875 18.441406 C 10.101562 18.441406 9.839844 18.695312 9.839844 19.007812 C 9.839844 19.320312 10.101562 19.574219 10.421875 19.574219 C 10.742188 19.574219 11.003906 19.320312 11.003906 19.007812 Z M 11.320312 19.007812 C 11.320312 19.488281 10.917969 19.882812 10.421875 19.882812 C 9.929688 19.882812 9.527344 19.488281 9.527344 19.007812 C 9.527344 18.527344 9.929688 18.132812 10.421875 18.132812 C 10.917969 18.132812 11.320312 18.527344 11.320312 19.007812 Z M 9.207031 20.007812 C 9.207031 19.59375 8.863281 19.257812 8.4375 19.257812 C 8.015625 19.257812 7.667969 19.59375 7.667969 20.007812 C 7.667969 20.421875 8.015625 20.757812 8.4375 20.757812 C 8.863281 20.757812 9.207031 20.421875 9.207031 20.007812 Z M 9.523438 20.007812 C 9.523438 20.589844 9.035156 21.066406 8.4375 21.066406 C 7.839844 21.066406 7.355469 20.589844 7.355469 20.007812 C 7.355469 19.425781 7.839844 18.953125 8.4375 18.953125 C 9.035156 18.953125 9.523438 19.425781 9.523438 20.007812 Z M 7.5 17.578125 L 7.976562 17.578125 L 7.976562 17.230469 C 7.976562 17.167969 8.027344 17.121094 8.089844 17.121094 C 8.152344 17.121094 8.199219 17.167969 8.199219 17.230469 L 8.199219 17.578125 L 8.875 17.578125 L 8.875 17.082031 C 8.875 17.019531 8.925781 16.972656 8.984375 16.972656 C 9.046875 16.972656 9.097656 17.019531 9.097656 17.082031 L 9.097656 17.578125 L 9.773438 17.578125 L 9.773438 17.230469 C 9.773438 17.167969 9.824219 17.121094 9.882812 17.121094 C 9.945312 17.121094 9.996094 17.167969 9.996094 17.230469 L 9.996094 17.578125 L 10.472656 17.578125 C 10.714844 17.578125 10.914062 17.386719 10.914062 17.148438 C 10.914062 16.910156 10.714844 16.71875 10.472656 16.71875 L 7.5 16.71875 C 7.253906 16.71875 7.058594 16.910156 7.058594 17.148438 C 7.058594 17.386719 7.253906 17.578125 7.5 17.578125 Z M 7.5 17.886719 C 7.082031 17.886719 6.742188 17.554688 6.742188 17.148438 C 6.742188 16.742188 7.082031 16.410156 7.5 16.410156 L 10.472656 16.410156 C 10.890625 16.410156 11.230469 16.742188 11.230469 17.148438 C 11.230469 17.554688 10.890625 17.886719 10.472656 17.886719 Z M 6.53125 19.042969 C 6.53125 20.414062 5.390625 21.523438 3.988281 21.523438 C 2.582031 21.523438 1.445312 20.414062 1.445312 19.042969 C 1.445312 17.675781 2.582031 16.566406 3.988281 16.566406 C 5.390625 16.566406 6.53125 17.675781 6.53125 19.042969 " fill-opacity="1" fill-rule="nonzero"/><g clip-path="url(#26ca651e7a)"><path fill="#ffffff" d="M 11.792969 21.585938 C 11.785156 21.921875 11.605469 22.199219 11.226562 22.21875 C 8.957031 22.21875 6.6875 22.21875 4.417969 22.21875 C 3.410156 22.21875 2.398438 22.234375 1.390625 22.21875 C 1.203125 22.21875 1.035156 22.199219 0.890625 22.058594 C 0.722656 21.894531 0.722656 21.703125 0.722656 21.492188 C 0.722656 20.925781 0.722656 20.359375 0.722656 19.792969 C 0.722656 19.0625 0.722656 18.332031 0.722656 17.597656 C 0.722656 17.246094 0.699219 16.882812 0.722656 16.527344 C 0.761719 15.972656 1.25 15.976562 1.671875 15.976562 C 2.15625 15.976562 2.644531 15.976562 3.132812 15.976562 C 5.742188 15.976562 8.347656 15.976562 10.953125 15.976562 C 11.359375 15.976562 11.773438 16.042969 11.792969 16.550781 C 11.808594 16.988281 11.792969 17.425781 11.792969 17.859375 C 11.792969 19.101562 11.820312 20.34375 11.792969 21.585938 Z M 12.167969 19.375 C 12.167969 18.640625 12.167969 17.910156 12.167969 17.175781 C 12.167969 16.691406 12.25 16.144531 11.804688 15.804688 C 11.503906 15.578125 11.148438 15.609375 10.792969 15.609375 C 10.246094 15.609375 9.699219 15.609375 9.152344 15.609375 C 7.574219 15.609375 5.996094 15.609375 4.417969 15.609375 C 3.6875 15.609375 2.953125 15.601562 2.21875 15.601562 C 2.546875 14.597656 2.875 13.59375 3.203125 12.589844 C 3.230469 12.59375 3.257812 12.59375 3.289062 12.59375 C 3.601562 12.59375 3.855469 12.347656 3.855469 12.042969 C 3.855469 11.738281 3.601562 11.488281 3.289062 11.488281 C 2.972656 11.488281 2.71875 11.738281 2.71875 12.042969 C 2.71875 12.253906 2.84375 12.4375 3.023438 12.53125 C 2.6875 13.554688 2.355469 14.578125 2.019531 15.601562 C 1.792969 15.605469 1.566406 15.605469 1.339844 15.609375 C 0.746094 15.617188 0.355469 16.03125 0.347656 16.601562 C 0.339844 17.152344 0.347656 17.707031 0.347656 18.257812 C 0.347656 19.019531 0.347656 19.785156 0.347656 20.546875 C 0.347656 20.957031 0.296875 21.394531 0.359375 21.796875 C 0.445312 22.382812 0.96875 22.589844 1.5 22.589844 C 1.953125 22.589844 2.410156 22.589844 2.867188 22.589844 C 5.589844 22.589844 8.3125 22.589844 11.039062 22.589844 C 11.101562 22.589844 11.164062 22.589844 11.226562 22.589844 C 11.710938 22.5625 12.117188 22.234375 12.164062 21.75 C 12.175781 21.617188 12.167969 21.484375 12.167969 21.355469 C 12.167969 20.695312 12.167969 20.035156 12.167969 19.375 " fill-opacity="1" fill-rule="nonzero"/></g><g clip-path="url(#facd898fff)"><path fill="#f63e7b" d="M 29.613281 13.714844 C 29.613281 13.808594 29.578125 13.898438 29.519531 13.96875 L 29.519531 13.972656 C 29.511719 13.976562 29.507812 13.984375 29.503906 13.988281 L 28.253906 15.367188 L 28.253906 22.148438 C 28.253906 22.320312 28.109375 22.460938 27.933594 22.460938 L 26.402344 22.460938 C 26.226562 22.460938 26.082031 22.320312 26.082031 22.148438 L 26.082031 15.363281 L 24.863281 14.015625 C 24.777344 13.941406 24.726562 13.832031 24.726562 13.714844 L 24.726562 10.761719 C 24.726562 10.535156 24.914062 10.351562 25.148438 10.351562 L 29.191406 10.351562 C 29.421875 10.351562 29.613281 10.535156 29.613281 10.761719 L 29.613281 13.714844 " fill-opacity="1" fill-rule="nonzero"/></g><g clip-path="url(#993b493208)"><path fill="#ffffff" d="M 28.464844 14.859375 C 28.304688 15.035156 28.117188 15.175781 28.074219 15.394531 L 26.265625 15.394531 C 26.222656 15.167969 26.023438 15.019531 25.863281 14.84375 C 25.664062 14.621094 25.460938 14.398438 25.261719 14.175781 C 25.140625 14.046875 24.949219 13.890625 24.914062 13.710938 C 24.890625 13.585938 24.914062 13.433594 24.914062 13.308594 C 24.914062 13.078125 24.914062 12.851562 24.914062 12.621094 L 29.425781 12.621094 C 29.425781 12.835938 29.425781 13.050781 29.425781 13.261719 C 29.425781 13.453125 29.46875 13.691406 29.363281 13.863281 C 29.0625 14.195312 28.765625 14.527344 28.464844 14.859375 Z M 27.90625 22.277344 C 27.664062 22.316406 27.382812 22.277344 27.136719 22.277344 C 26.925781 22.277344 26.632812 22.328125 26.425781 22.277344 C 26.183594 22.21875 26.273438 21.800781 26.273438 21.605469 C 26.273438 21.121094 26.273438 20.636719 26.273438 20.152344 C 26.273438 19.007812 26.273438 17.863281 26.273438 16.71875 L 28.0625 16.71875 C 28.0625 17.246094 28.066406 17.773438 28.066406 18.300781 C 28.066406 19.410156 28.066406 20.515625 28.066406 21.625 C 28.066406 21.808594 28.15625 22.238281 27.90625 22.277344 Z M 25.894531 15.371094 C 25.890625 15.375 25.886719 15.386719 25.882812 15.40625 C 25.882812 15.394531 25.882812 15.382812 25.894531 15.371094 Z M 25.179688 10.535156 C 25.316406 10.515625 25.472656 10.535156 25.613281 10.535156 C 26.734375 10.535156 27.855469 10.535156 28.976562 10.535156 C 29.160156 10.535156 29.398438 10.5 29.425781 10.761719 C 29.425781 10.941406 29.425781 11.121094 29.425781 11.296875 L 24.914062 11.296875 C 24.914062 11.160156 24.914062 11.023438 24.914062 10.886719 C 24.914062 10.707031 24.953125 10.5625 25.179688 10.535156 Z M 29.800781 11.332031 C 29.800781 11.15625 29.800781 10.980469 29.800781 10.804688 C 29.804688 10.789062 29.804688 10.777344 29.800781 10.761719 C 29.800781 10.746094 29.800781 10.730469 29.796875 10.714844 C 29.710938 10.160156 29.207031 10.167969 28.746094 10.167969 C 28.117188 10.167969 27.488281 10.167969 26.859375 10.167969 C 26.328125 10.167969 25.796875 10.160156 25.269531 10.167969 C 24.785156 10.171875 24.535156 10.453125 24.535156 10.914062 C 24.535156 11.050781 24.535156 11.191406 24.535156 11.332031 C 24.421875 11.382812 24.34375 11.496094 24.34375 11.625 L 24.34375 12.292969 C 24.34375 12.421875 24.421875 12.535156 24.535156 12.589844 C 24.535156 12.613281 24.535156 12.632812 24.535156 12.65625 C 24.535156 12.925781 24.535156 13.195312 24.535156 13.464844 C 24.535156 13.636719 24.519531 13.816406 24.597656 13.972656 C 24.6875 14.148438 24.878906 14.308594 25.011719 14.457031 C 25.230469 14.699219 25.449219 14.941406 25.667969 15.183594 C 25.738281 15.257812 25.804688 15.347656 25.882812 15.421875 C 25.761719 15.472656 25.675781 15.589844 25.675781 15.722656 L 25.675781 16.390625 C 25.675781 16.53125 25.765625 16.648438 25.890625 16.695312 C 25.882812 18.480469 25.859375 20.265625 25.894531 22.050781 C 25.898438 22.1875 25.90625 22.316406 25.992188 22.4375 C 26.101562 22.582031 26.25 22.628906 26.40625 22.640625 C 26.40625 22.644531 26.40625 22.644531 26.40625 22.648438 L 26.40625 23.101562 C 26.40625 23.207031 26.492188 23.289062 26.601562 23.289062 L 27.738281 23.289062 C 27.84375 23.289062 27.929688 23.207031 27.929688 23.101562 L 27.929688 22.648438 C 27.929688 22.648438 27.929688 22.644531 27.929688 22.640625 C 28.074219 22.628906 28.210938 22.589844 28.320312 22.46875 C 28.503906 22.257812 28.441406 21.898438 28.441406 21.640625 C 28.441406 21.105469 28.441406 20.574219 28.441406 20.039062 C 28.441406 18.925781 28.441406 17.8125 28.441406 16.699219 C 28.570312 16.652344 28.660156 16.53125 28.660156 16.390625 L 28.660156 15.722656 C 28.660156 15.589844 28.578125 15.472656 28.457031 15.421875 C 28.53125 15.355469 28.59375 15.269531 28.65625 15.199219 C 28.882812 14.949219 29.105469 14.703125 29.332031 14.457031 C 29.4375 14.335938 29.546875 14.21875 29.652344 14.101562 C 29.664062 14.085938 29.671875 14.074219 29.679688 14.0625 C 29.679688 14.0625 29.683594 14.0625 29.683594 14.0625 C 29.820312 13.855469 29.800781 13.644531 29.800781 13.410156 C 29.800781 13.136719 29.800781 12.863281 29.800781 12.589844 C 29.914062 12.535156 29.992188 12.421875 29.992188 12.292969 L 29.992188 11.625 C 29.992188 11.496094 29.914062 11.382812 29.800781 11.332031 " fill-opacity="1" fill-rule="nonzero"/></g><path fill="#f63e7b" d="M 27.226562 18.71875 L 27.113281 18.71875 C 26.957031 18.71875 26.828125 18.59375 26.828125 18.441406 L 26.828125 17.398438 C 26.828125 17.246094 26.957031 17.121094 27.113281 17.121094 L 27.226562 17.121094 C 27.382812 17.121094 27.507812 17.246094 27.507812 17.398438 L 27.507812 18.441406 C 27.507812 18.59375 27.382812 18.71875 27.226562 18.71875 " fill-opacity="1" fill-rule="nonzero"/><path fill="#ffffff" d="M 27.113281 17.277344 C 27.042969 17.277344 26.988281 17.332031 26.988281 17.398438 L 26.988281 18.441406 C 26.988281 18.511719 27.042969 18.566406 27.113281 18.566406 L 27.226562 18.566406 C 27.296875 18.566406 27.351562 18.511719 27.351562 18.441406 L 27.351562 17.398438 C 27.351562 17.332031 27.296875 17.277344 27.226562 17.277344 Z M 27.226562 18.871094 L 27.113281 18.871094 C 26.871094 18.871094 26.671875 18.679688 26.671875 18.441406 L 26.671875 17.398438 C 26.671875 17.160156 26.871094 16.96875 27.113281 16.96875 L 27.226562 16.96875 C 27.46875 16.96875 27.664062 17.160156 27.664062 17.398438 L 27.664062 18.441406 C 27.664062 18.679688 27.46875 18.871094 27.226562 18.871094 " fill-opacity="1" fill-rule="nonzero"/><g clip-path="url(#c537f4b2de)"><path fill="#a6a6a6" d="M 24.273438 15.269531 L 24.273438 22.433594 C 24.273438 22.835938 23.933594 23.167969 23.519531 23.167969 L 20.199219 23.167969 C 19.785156 23.167969 19.445312 22.835938 19.445312 22.433594 L 19.445312 15.269531 C 19.445312 14.863281 19.785156 14.535156 20.199219 14.535156 L 23.519531 14.535156 C 23.933594 14.535156 24.273438 14.863281 24.273438 15.269531 " fill-opacity="1" fill-rule="nonzero"/><path fill="#ffffff" d="M 22.308594 22.394531 C 22.386719 22.394531 22.449219 22.453125 22.449219 22.53125 C 22.449219 22.605469 22.386719 22.667969 22.308594 22.667969 L 21.410156 22.667969 C 21.332031 22.667969 21.269531 22.605469 21.269531 22.53125 C 21.269531 22.453125 21.332031 22.394531 21.410156 22.394531 Z M 22.640625 22.53125 C 22.640625 22.355469 22.492188 22.210938 22.308594 22.210938 L 21.410156 22.210938 C 21.230469 22.210938 21.082031 22.355469 21.082031 22.53125 C 21.082031 22.707031 21.230469 22.851562 21.410156 22.851562 L 22.308594 22.851562 C 22.492188 22.851562 22.640625 22.707031 22.640625 22.53125 Z M 23.234375 15.167969 L 20.484375 15.167969 C 20.214844 15.167969 19.996094 15.382812 19.996094 15.648438 L 19.996094 21.613281 C 19.996094 21.875 20.214844 22.089844 20.484375 22.089844 L 23.234375 22.089844 C 23.503906 22.089844 23.722656 21.875 23.722656 21.613281 L 23.722656 15.648438 C 23.722656 15.382812 23.503906 15.167969 23.234375 15.167969 Z M 23.519531 23.351562 C 23.425781 23.351562 23.328125 23.351562 23.234375 23.351562 C 22.25 23.351562 21.265625 23.363281 20.28125 23.351562 C 19.722656 23.34375 19.28125 22.996094 19.257812 22.433594 C 19.25 22.25 19.257812 22.0625 19.257812 21.878906 C 19.257812 19.859375 19.257812 17.84375 19.257812 15.824219 C 19.257812 15.640625 19.25 15.453125 19.257812 15.269531 C 19.28125 14.714844 19.71875 14.359375 20.269531 14.351562 C 21.257812 14.339844 22.246094 14.351562 23.234375 14.351562 C 23.679688 14.351562 24.113281 14.40625 24.351562 14.839844 C 24.484375 15.078125 24.464844 15.332031 24.464844 15.589844 C 24.464844 16.523438 24.464844 17.460938 24.464844 18.394531 C 24.464844 19.46875 24.464844 20.542969 24.464844 21.617188 C 24.464844 21.875 24.46875 22.132812 24.464844 22.390625 C 24.453125 22.925781 24.074219 23.324219 23.519531 23.351562 C 23.277344 23.363281 23.277344 22.996094 23.519531 22.984375 C 23.847656 22.96875 24.074219 22.734375 24.085938 22.417969 C 24.113281 21.820312 24.085938 21.210938 24.085938 20.613281 C 24.085938 19.566406 24.085938 18.523438 24.085938 17.480469 C 24.085938 16.773438 24.097656 16.0625 24.085938 15.355469 C 24.078125 14.984375 23.855469 14.726562 23.457031 14.71875 C 23.070312 14.707031 22.679688 14.71875 22.292969 14.71875 C 21.765625 14.71875 21.242188 14.71875 20.71875 14.71875 C 20.351562 14.71875 19.878906 14.644531 19.6875 15.039062 C 19.601562 15.21875 19.632812 15.453125 19.632812 15.648438 C 19.632812 16.007812 19.632812 16.367188 19.632812 16.726562 C 19.632812 18.558594 19.632812 20.390625 19.632812 22.222656 C 19.632812 22.59375 19.738281 22.953125 20.199219 22.984375 C 20.480469 23.003906 20.769531 22.984375 21.050781 22.984375 C 21.875 22.984375 22.699219 22.984375 23.519531 22.984375 C 23.761719 22.984375 23.761719 23.351562 23.519531 23.351562 " fill-opacity="1" fill-rule="nonzero"/></g></svg>